# xmcd
#
# Track frame offsets:
#	150
#	16022
#	30521
#	41847
#	53900
#	69148
#	83995
#	95527
#	106966
#	118539
#	125463
#	134113
#	151666
#	166909
#
# Disc length: 2401 seconds
#
# Revision: 0
# Processed by: cddbd v1.5.1PL2 Copyright (c) Steve Scherf et al.
# Submitted via: dBpowerAMP V4.0
#
DISCID=ac095f0e
DTITLE=Assorted - Rowdy Country Christmas
DYEAR=2005
DGENRE=Country
TTITLE0=What Child Is This-Crystal Gayle
TTITLE1=Deck The Halls-Loretta Lynn
TTITLE2=Hark! The Herald Angels Sing-Melba Montgomery
TTITLE3=O Little Town Of Bethlehem-Kim Carnes
TTITLE4=O Come All Ye Faithful-Brenda Lee
TTITLE5=Away In A Manger-Loretta Lynn
TTITLE6=Jingle Bells-Donna Fargo
TTITLE7=Here Comes Santa Claus-Lacy J. Dalton
TTITLE8=Santa Claus Is Coming To Town-Skeeter Davis
TTITLE9=We Wish You A Merry Christmas-Margo Smith
TTITLE10=O Christmas Tree-Melba Montgomery
TTITLE11=Joy To The World-Jeanie C. Riley
TTITLE12=Silent Night-Louise Mandrell
TTITLE13=It Came Upon A Midnight Clear-Sandy Posey
EXTD=
EXTT0=
EXTT1=
EXTT2=
EXTT3=
EXTT4=
EXTT5=
EXTT6=
EXTT7=
EXTT8=
EXTT9=
EXTT10=
EXTT11=
EXTT12=
EXTT13=
PLAYORDER=
